{"asset":{"version":"2.0","generator":"Verge3D"},"scenes":[{"name":"AuxScene","nodes":[0]}],"scene":0,"nodes":[{"rotation":[0.7071067690849304,0,0,0.7071067690849304],"translation":[9.629558563232422,0,0],"scale":[0.009999999776482582,0.009999999776482582,0.009999999776482582],"name":"3Dmodelexport","extras":{"name":"3Dmodelexport"},"mesh":0}],"bufferViews":[{"buffer":0,"byteOffset":0,"byteLength":290412,"target":34962,"byteStride":12},{"buffer":0,"byteOffset":290412,"byteLength":290412,"target":34962,"byteStride":12},{"buffer":0,"byteOffset":580824,"byteLength":387216,"target":34962,"byteStride":16},{"buffer":0,"byteOffset":968040,"byteLength":193608,"target":34962,"byteStride":8},{"buffer":0,"byteOffset":1161648,"byteLength":278028,"target":34963}],"buffers":[{"byteLength":1439676,"uri":"data:application/octet-stream;base64,"}],"accessors":[{"bufferView":0,"componentType":5126,"count":24201,"max":[0.9999729990959167,0.9999987483024597,0.9992210268974304],"min":[-0.9999827742576599,-0.9999816417694092,-0.9997689723968506],"type":"VEC3"},{"bufferView":1,"componentType":5126,"count":24201,"max":[324.6578063964844,172.7156219482422,373.8770751953125],"min":[-322.9144287109375,-190.674560546875,-446.03125],"type":"VEC3"},{"bufferView":2,"componentType":5126,"count":24201,"max":[1,0.9999915957450867,0.9999117851257324,1],"min":[-0.9999980330467224,-0.9999298453330994,-0.9915543794631958,-1],"type":"VEC4"},{"bufferView":3,"componentType":5126,"count":24201,"max":[0.9694847464561462,0.9933916926383972],"min":[0.01723528280854225,0.0317155122756958],"type":"VEC2"},{"bufferView":4,"componentType":5123,"count":139014,"max":[24200],"min":[0],"type":"SCALAR"}],"materials":[{"pbrMetallicRoughness":{"baseColorFactor":[0.800000011920929,0.800000011920929,0.800000011920929,1],"metallicFactor":0,"roughnessFactor":1,"baseColorTexture":{"index":0}},"normalTexture":{"index":1},"doubleSided":true,"name":"susannas_help_PBR"}],"textures":[{"sampler":0,"source":0,"name":"yourdesignhere_001.png.001"},{"sampler":1,"source":1,"name":"hoodie_normal_<UDIM>.jpg"}],"samplers":[{"magFilter":9729,"minFilter":9987,"wrapS":10497,"wrapT":10497},{"magFilter":9729,"minFilter":9987,"wrapS":10497,"wrapT":10497}],"images":[{"mimeType":"image/png","uri":"data:image/png;base64,"},{"mimeType":"image/jpeg","uri":"data:image/jpeg;base64,"}],"meshes":[{"primitives":[{"mode":4,"attributes":{"NORMAL":0,"POSITION":1,"TANGENT":2,"TEXCOORD_0":3},"indices":4,"material":0}]}]}