<svg width="20" height="20" viewBox="0 0 20 20" fill="none" xmlns="http://www.w3.org/2000/svg">
<path d="M1.66663 7.91667C1.66664 6.98933 1.94795 6.08382 2.4734 5.31972C2.99885 4.55562 3.74372 3.96888 4.60963 3.637C5.47554 3.30511 6.42176 3.2437 7.3233 3.46087C8.22485 3.67803 9.03931 4.16356 9.65913 4.85333C9.70278 4.90001 9.75556 4.93722 9.81419 4.96266C9.87282 4.98811 9.93605 5.00123 9.99996 5.00123C10.0639 5.00123 10.1271 4.98811 10.1857 4.96266C10.2444 4.93722 10.2971 4.90001 10.3408 4.85333C10.9587 4.15908 11.7733 3.66947 12.6763 3.44967C13.5793 3.22986 14.5279 3.29029 15.3957 3.6229C16.2635 3.95551 17.0094 4.54454 17.5342 5.31158C18.059 6.07862 18.3377 6.9873 18.3333 7.91667C18.3333 9.825 17.0833 11.25 15.8333 12.5L11.2566 16.9275C11.1013 17.1058 10.9099 17.2491 10.695 17.3478C10.4801 17.4464 10.2467 17.4982 10.0102 17.4997C9.77374 17.5012 9.53967 17.4524 9.32353 17.3564C9.1074 17.2605 8.91415 17.1197 8.75663 16.9433L4.16663 12.5C2.91663 11.25 1.66663 9.83333 1.66663 7.91667Z" stroke="#2A2A2A" stroke-width="1.25" stroke-linecap="round" stroke-linejoin="round"/>
</svg>
